<?xml version="1.0" encoding="UTF-8"?>
<svg version="1.1" xmlns="http://www.w3.org/2000/svg" width="48" height="48">
<path d="M0 0 C3.96064467 1.80782039 6.20423152 4.31379914 8.05078125 8.2265625 C8.84487622 10.47712551 9.47388159 12.67293782 10 15 C10.17789063 15.77601562 10.35578125 16.55203125 10.5390625 17.3515625 C11.63476846 23.64722897 12.71665471 30.83550739 9.578125 36.62109375 C6.02397454 40.76000828 2.73619782 43.672266 -2.8046875 44.3359375 C-9.04843579 44.4153745 -13.20550521 44.4436781 -18 40 C-18.94875 39.21625 -19.8975 38.4325 -20.875 37.625 C-24.74452794 32.68199011 -23.56163594 25.87221573 -23 20 C-21.89443291 12.27009241 -20.05110676 6.20833423 -14 1 C-9.75368118 -1.12315941 -4.60040628 -0.60005299 0 0 Z " fill="#242424" transform="translate(30,2)"/>
<path d="M0 0 C0.73734375 0.00773438 1.4746875 0.01546875 2.234375 0.0234375 C3.34039063 0.01183594 3.34039063 0.01183594 4.46875 0 C9.9810554 0.0201179 9.9810554 0.0201179 12.234375 2.2734375 C12.67796865 7.68528004 12.59450856 10.79325943 9.234375 15.2734375 C9.564375 15.6034375 9.894375 15.9334375 10.234375 16.2734375 C10.69294918 22.46418895 10.69294918 22.46418895 9.171875 25.1484375 C6.17421909 26.8890119 3.67900909 27.15465701 0.234375 27.2734375 C-2.14196293 26.13692806 -3.91003529 25.12902721 -5.765625 23.2734375 C-5.80882747 20.94050416 -5.80584891 18.6064241 -5.765625 16.2734375 C-5.4882749 13.08853743 -5.4882749 13.08853743 -7.765625 10.2734375 C-8.13729684 7.51322754 -7.94413136 5.08491274 -7.765625 2.2734375 C-5.20613501 -0.28605249 -3.49355305 0.01275019 0 0 Z " fill="#737272" transform="translate(21.765625,15.7265625)"/>
<path d="M0 0 C1.2065625 0.0309375 1.2065625 0.0309375 2.4375 0.0625 C2.4375 3.0625 2.4375 3.0625 1.4375 5.0625 C3.4175 5.0625 5.3975 5.0625 7.4375 5.0625 C7.4375 7.0425 7.4375 9.0225 7.4375 11.0625 C2.8175 11.0625 -1.8025 11.0625 -6.5625 11.0625 C-6.2325 9.4125 -5.9025 7.7625 -5.5625 6.0625 C-3.9125 5.7325 -2.2625 5.4025 -0.5625 5.0625 C-1.5525 3.7425 -2.5425 2.4225 -3.5625 1.0625 C-2.5625 0.0625 -2.5625 0.0625 0 0 Z " fill="#ABABAB" transform="translate(23.5625,25.9375)"/>
<path d="M0 0 C4.62 0 9.24 0 14 0 C13.34 1.32 12.68 2.64 12 4 C8.01967863 5.12650605 5.87132954 5.38931746 2.0625 3.6875 C1.381875 3.130625 0.70125 2.57375 0 2 C0 1.34 0 0.68 0 0 Z " fill="#939393" transform="translate(17,38)"/>
<path d="M0 0 C1.32 0.33 2.64 0.66 4 1 C4 1.66 4 2.32 4 3 C2.7934375 3.37125 2.7934375 3.37125 1.5625 3.75 C0.2940625 4.36875 0.2940625 4.36875 -1 5 C-1.33 6.32 -1.66 7.64 -2 9 C2.62 9 7.24 9 12 9 C12 7.35 12 5.7 12 4 C12.33 4 12.66 4 13 4 C13 6.31 13 8.62 13 11 C7.72 11 2.44 11 -3 11 C-3 8.69 -3 6.38 -3 4 C-2.01 3.67 -1.02 3.34 0 3 C0 2.01 0 1.02 0 0 Z " fill="#6B6B6B" transform="translate(19,28)"/>
</svg>
