<?xml version="1.0" standalone="no"?>
<!DOCTYPE svg PUBLIC "-//W3C//DTD SVG 20010904//EN"
 "http://www.w3.org/TR/2001/REC-SVG-20010904/DTD/svg10.dtd">
<svg version="1.0" xmlns="http://www.w3.org/2000/svg"
 width="64.000000pt" height="64.000000pt" viewBox="0 0 64.000000 64.000000"
 preserveAspectRatio="xMidYMid meet">
<metadata>
Created by potrace 1.16, written by Peter Selinger 2001-2019
</metadata>
<g transform="translate(0.000000,64.000000) scale(0.100000,-0.100000)"
fill="#000000" stroke="none">
<path d="M254 630 c-20 -8 -67 -61 -127 -143 -36 -48 -60 -104 -47 -112 6 -3
5 -15 -2 -30 -8 -17 -7 -32 1 -56 6 -17 11 -60 11 -95 0 -40 5 -68 14 -76 7
-8 21 -28 30 -46 9 -18 23 -32 30 -32 8 0 33 -9 57 -20 56 -25 136 -26 197 -1
26 11 55 22 65 25 9 3 23 18 30 33 6 15 20 36 30 46 14 14 18 34 18 90 0 40 1
104 2 144 2 67 0 74 -31 112 -17 22 -32 43 -32 46 0 15 -76 97 -101 111 -30
15 -111 18 -145 4z m9 -354 c3 -8 16 -16 29 -18 16 -2 25 -12 29 -33 l7 -30 1
33 c1 23 6 32 18 32 9 0 24 7 33 15 15 14 18 14 30 0 7 -9 14 -35 14 -58 1
-33 -2 -41 -14 -38 -40 11 -132 12 -159 3 l-31 -11 0 40 c0 60 29 103 43 65z"/>
</g>
</svg>
